<?xml version="1.0" encoding="UTF-8" standalone="no"?>
<!-- Created with Inkscape (http://www.inkscape.org/) -->

<svg
   xmlns:dc="http://purl.org/dc/elements/1.1/"
   xmlns:cc="http://creativecommons.org/ns#"
   xmlns:rdf="http://www.w3.org/1999/02/22-rdf-syntax-ns#"
   xmlns:svg="http://www.w3.org/2000/svg"
   xmlns="http://www.w3.org/2000/svg"
   xmlns:sodipodi="http://sodipodi.sourceforge.net/DTD/sodipodi-0.dtd"
   xmlns:inkscape="http://www.inkscape.org/namespaces/inkscape"
   width="256mm"
   height="256mm"
   viewBox="0 0 907.08661 907.08661"
   id="svg2"
   version="1.1"
   inkscape:version="0.91 r13725"
   sodipodi:docname="week1.svg">
  <defs
     id="defs4">
    <inkscape:path-effect
       effect="spiro"
       id="path-effect4205"
       is_visible="true" />
    <inkscape:path-effect
       effect="spiro"
       id="path-effect4201"
       is_visible="true" />
    <inkscape:path-effect
       effect="spiro"
       id="path-effect4185"
       is_visible="true" />
    <inkscape:path-effect
       is_visible="true"
       id="path-effect4181"
       effect="spiro" />
    <inkscape:path-effect
       is_visible="true"
       id="path-effect4177"
       effect="spiro" />
    <inkscape:path-effect
       effect="spiro"
       id="path-effect4173"
       is_visible="true" />
    <inkscape:path-effect
       is_visible="true"
       id="path-effect4169"
       effect="spiro" />
    <inkscape:path-effect
       effect="spiro"
       id="path-effect4165"
       is_visible="true" />
  </defs>
  <sodipodi:namedview
     id="base"
     pagecolor="#ffffff"
     bordercolor="#666666"
     borderopacity="1.0"
     inkscape:pageopacity="0.0"
     inkscape:pageshadow="2"
     inkscape:zoom="0.25"
     inkscape:cx="912.28216"
     inkscape:cy="753.10298"
     inkscape:document-units="px"
     inkscape:current-layer="layer1"
     showgrid="false"
     showguides="true"
     inkscape:guide-bbox="true"
     inkscape:snap-page="true"
     inkscape:snap-bbox="true"
     inkscape:snap-object-midpoints="true"
     inkscape:snap-bbox-midpoints="true"
     inkscape:snap-bbox-edge-midpoints="true"
     inkscape:snap-center="true"
     inkscape:object-nodes="true"
     inkscape:window-width="1920"
     inkscape:window-height="1137"
     inkscape:window-x="1912"
     inkscape:window-y="-8"
     inkscape:window-maximized="1">
    <sodipodi:guide
       position="568.57143,442.85714"
       orientation="0,1"
       id="guide4136" />
    <sodipodi:guide
       position="460,505.71429"
       orientation="1,0"
       id="guide4138" />
  </sodipodi:namedview>
  <metadata
     id="metadata7">
    <rdf:RDF>
      <cc:Work
         rdf:about="">
        <dc:format>image/svg+xml</dc:format>
        <dc:type
           rdf:resource="http://purl.org/dc/dcmitype/StillImage" />
        <dc:title />
      </cc:Work>
    </rdf:RDF>
  </metadata>
  <g
     inkscape:label="Layer 1"
     inkscape:groupmode="layer"
     id="layer1"
     transform="translate(0,-145.27559)">
    <path
       style="color:#000000;font-style:normal;font-variant:normal;font-weight:normal;font-stretch:normal;font-size:medium;line-height:normal;font-family:sans-serif;text-indent:0;text-align:start;text-decoration:none;text-decoration-line:none;text-decoration-style:solid;text-decoration-color:#000000;letter-spacing:normal;word-spacing:normal;text-transform:none;direction:ltr;block-progression:tb;writing-mode:lr-tb;baseline-shift:baseline;text-anchor:start;white-space:normal;clip-rule:nonzero;display:inline;overflow:visible;visibility:visible;opacity:0.6;isolation:auto;mix-blend-mode:normal;color-interpolation:sRGB;color-interpolation-filters:linearRGB;solid-color:#000000;solid-opacity:1;fill:#69f0ae;fill-opacity:0.94117647;fill-rule:nonzero;stroke:#c2f9df;stroke-width:18.9;stroke-linecap:butt;stroke-linejoin:miter;stroke-miterlimit:4;stroke-dasharray:none;stroke-dashoffset:0;stroke-opacity:0.94117647;color-rendering:auto;image-rendering:auto;shape-rendering:auto;text-rendering:auto;enable-background:accumulate"
       d="m 460,219.6543 c -214.71994,0 -389.849609,175.13162 -389.849609,389.85156 6e-6,214.71994 175.129669,389.84961 389.849609,389.84961 214.71994,0 389.8496,-175.12967 389.84961,-389.84961 C 849.84961,394.78592 674.71994,219.6543 460,219.6543 Z m 0,99.32617 c 161.0405,0 290.52539,129.48489 290.52539,290.52539 0,161.04049 -129.4849,290.52344 -290.52539,290.52344 -161.04049,0 -290.52539,-129.48295 -290.52539,-290.52344 0,-161.0405 129.48489,-290.52539 290.52539,-290.52539 z"
       id="path4142"
       inkscape:connector-curvature="0" />
    <g
       id="g4152"
       transform="translate(-1.4128347e-5,20.957057)">
      <g
         style="font-style:normal;font-weight:normal;font-size:107.18058014px;line-height:125%;font-family:sans-serif;letter-spacing:0px;word-spacing:0px;fill:#5e5e5e;fill-opacity:1;stroke:none;stroke-width:1px;stroke-linecap:butt;stroke-linejoin:miter;stroke-opacity:1"
         id="text4144">
        <path
           d="m 431.7395,418.59095 0,49.40355 q 0,13.08356 -8.68748,20.51503 -8.68749,7.37913 -22.66074,7.37913 -14.07792,0 -22.81774,-7.37913 -8.73983,-7.43147 -8.73983,-20.51503 l 0,-49.40355 17.74132,0 0,49.40355 q 0,7.06512 3.6634,10.67619 3.6634,3.61106 10.15285,3.61106 6.43711,0 9.99584,-3.55873 3.61107,-3.61106 3.61107,-10.72852 l 0,-49.40355 17.74131,0 z"
           style="font-style:normal;font-variant:normal;font-weight:normal;font-stretch:normal;font-family:Roboto;-inkscape-font-specification:Roboto;fill:#5e5e5e;fill-opacity:1"
           id="path4261" />
        <path
           d="m 439.95598,466.58147 q 0,-13.24057 5.75677,-21.35238 5.80911,-8.11181 16.3283,-8.11181 4.44841,0 7.85014,2.1457 3.40172,2.09338 5.86143,5.96611 l 1.15136,-7.06513 15.59561,0 0,55.99767 q 0,11.19953 -7.69314,17.32264 -7.6408,6.17545 -21.09071,6.17545 -4.39608,0 -9.21083,-1.20369 -4.81475,-1.20369 -9.21083,-3.24473 l 3.03539,-13.08356 q 3.8204,1.67469 7.27446,2.45971 3.5064,0.83735 8.00714,0.83735 5.6521,0 8.37349,-2.25038 2.77371,-2.25037 2.77371,-7.11746 l 0,-4.39608 q -2.40737,3.08773 -5.59976,4.65775 -3.14006,1.57003 -7.22213,1.57003 -10.46686,0 -16.22363,-7.74547 -5.75677,-7.74547 -5.75677,-20.4627 l 0,-1.09902 z m 17.63665,1.09902 q 0,6.90813 1.98871,10.78086 2.04103,3.8204 6.85578,3.8204 2.87839,0 4.91943,-0.88968 2.09337,-0.88968 3.40172,-2.66905 l 0,-23.81209 q -1.30835,-2.04104 -3.34939,-3.08772 -2.04104,-1.09902 -4.86709,-1.09902 -4.71008,0 -6.85579,4.39608 -2.09337,4.34374 -2.09337,11.4612 l 0,1.09902 z"
           style="font-style:normal;font-variant:normal;font-weight:normal;font-stretch:normal;font-family:Roboto;-inkscape-font-specification:Roboto;fill:#5e5e5e;fill-opacity:1"
           id="path4263" />
        <path
           d="m 527.7729,495.88866 q -12.87423,0 -20.20103,-7.7978 -7.27447,-7.79781 -7.27447,-19.73002 l 0,-1.9887 q 0,-12.9789 6.85579,-21.14305 6.90813,-8.16414 19.93936,-8.11181 11.4612,0 17.74132,6.85579 6.33244,6.85579 6.33244,18.788 l 0,9.26317 -32.44724,0 -0.10467,0.314 q 0.41867,4.44841 3.29706,7.22213 2.87838,2.72138 8.26881,2.72138 5.07643,0 8.42582,-0.83735 3.40173,-0.83734 7.74547,-2.66904 l 4.23908,10.78086 q -3.6634,2.66904 -9.83885,4.50074 -6.17544,1.8317 -12.97889,1.8317 z m -0.68035,-45.16447 q -4.23908,0 -6.28011,2.72138 -1.9887,2.66905 -2.30271,7.27446 l 0.10467,0.26168 15.2816,0 0,-1.3607 q 0,-4.39607 -1.57002,-6.64645 -1.5177,-2.25037 -5.23343,-2.25037 z"
           style="font-style:normal;font-variant:normal;font-weight:normal;font-stretch:normal;font-family:Roboto;-inkscape-font-specification:Roboto;fill:#5e5e5e;fill-opacity:1"
           id="path4265" />
      </g>
      <g
         style="font-style:normal;font-weight:normal;font-size:245.2159729px;line-height:125%;font-family:sans-serif;letter-spacing:0px;word-spacing:0px;fill:#000000;fill-opacity:1;stroke:none;stroke-width:1px;stroke-linecap:butt;stroke-linejoin:miter;stroke-opacity:1"
         id="text4148">
        <path
           d="m 497.77619,758.50507 -40.47021,0 0,-139.73 -35.08217,0 0,-30.89147 75.55238,-6.22619 0,176.84766 z"
           style="font-style:normal;font-variant:normal;font-weight:normal;font-stretch:normal;font-family:Roboto;-inkscape-font-specification:Roboto"
           id="path4268" />
      </g>
    </g>
    <path
       sodipodi:type="inkscape:offset"
       inkscape:radius="0"
       inkscape:original="M 457.47461 215.66211 C 349.99864 215.72584 243.86933 263.00066 171.21289 342.07227 C 102.92599 415.36583 64.100437 515.40618 66.138672 615.6582 C 67.403781 711.1361 105.10115 805.49747 169.95898 875.57617 C 238.20079 950.22575 335.93789 997.34024 437.06055 1002.748 C 532.26717 1008.5004 629.11615 978.0851 703.72266 918.60547 C 785.58072 854.15833 840.66042 756.38526 851.54297 652.59961 C 862.40527 555.8828 835.73879 455.50206 777.81445 377.22852 C 714.54171 290.54961 614.83019 231.03697 508.03711 218.57812 C 491.26876 216.52589 474.36854 215.555 457.47461 215.66211 z M 460.00391 322.98047 C 547.32235 322.27281 633.58681 364.32961 686.76172 433.75 C 735.30768 496.04653 755.80636 578.78908 742.83008 656.35547 C 729.95583 736.44147 681.32802 809.99035 612.25195 852.64062 C 543.6981 895.69611 456.56512 907.55818 379.14453 884.59961 C 302.03211 862.31932 235.44946 806.10021 201.29102 733.31641 C 162.35332 652.00736 164.17499 552.75304 207.53906 473.51562 C 243.9431 405.10569 309.06123 353.11122 383.83008 333.14062 C 408.60526 326.37111 434.34152 322.91957 460.00391 322.98047 z "
       style="color:#000000;font-style:normal;font-variant:normal;font-weight:normal;font-stretch:normal;font-size:medium;line-height:normal;font-family:sans-serif;text-indent:0;text-align:start;text-decoration:none;text-decoration-line:none;text-decoration-style:solid;text-decoration-color:#000000;letter-spacing:normal;word-spacing:normal;text-transform:none;direction:ltr;block-progression:tb;writing-mode:lr-tb;baseline-shift:baseline;text-anchor:start;white-space:normal;clip-rule:nonzero;display:inline;overflow:visible;visibility:visible;opacity:1;isolation:auto;mix-blend-mode:normal;color-interpolation:sRGB;color-interpolation-filters:linearRGB;solid-color:#000000;solid-opacity:1;fill:#bfcac5;fill-opacity:0.94117647;fill-rule:nonzero;stroke:#e5e5e5;stroke-width:18.89999962;stroke-linecap:butt;stroke-linejoin:miter;stroke-miterlimit:4;stroke-dasharray:none;stroke-dashoffset:0;stroke-opacity:1;color-rendering:auto;image-rendering:auto;shape-rendering:auto;text-rendering:auto;enable-background:accumulate"
       id="path4230"
       d="m 457.47461,215.66211 c -107.47597,0.0637 -213.60528,47.33855 -286.26172,126.41016 -68.2869,73.29356 -107.112453,173.33391 -105.074218,273.58593 1.265109,95.4779 38.962478,189.83927 103.820308,259.91797 68.24181,74.64958 165.97891,121.76407 267.10157,127.17183 95.20662,5.7524 192.0556,-24.6629 266.66211,-84.14253 C 785.58072,854.15833 840.66042,756.38526 851.54297,652.59961 862.40527,555.8828 835.73879,455.50206 777.81445,377.22852 714.54171,290.54961 614.83019,231.03697 508.03711,218.57812 c -16.76835,-2.05223 -33.66857,-3.02312 -50.5625,-2.91601 z m 2.5293,107.31836 c 87.31844,-0.70766 173.5829,41.34914 226.75781,110.76953 48.54596,62.29653 69.04464,145.03908 56.06836,222.60547 -12.87425,80.086 -61.50206,153.63488 -130.57813,196.28515 -68.55385,43.05549 -155.68683,54.91756 -233.10742,31.95899 -77.11242,-22.28029 -143.69507,-78.4994 -177.85351,-151.2832 -38.9377,-81.30905 -37.11603,-180.56337 6.24804,-259.80079 36.40404,-68.40993 101.52217,-120.4044 176.29102,-140.375 24.77518,-6.76951 50.51144,-10.22105 76.17383,-10.16015 z" />
    <path
       style="color:#000000;font-style:normal;font-variant:normal;font-weight:normal;font-stretch:normal;font-size:medium;line-height:normal;font-family:sans-serif;text-indent:0;text-align:start;text-decoration:none;text-decoration-line:none;text-decoration-style:solid;text-decoration-color:#000000;letter-spacing:normal;word-spacing:normal;text-transform:none;direction:ltr;block-progression:tb;writing-mode:lr-tb;baseline-shift:baseline;text-anchor:start;white-space:normal;clip-rule:nonzero;display:inline;overflow:visible;visibility:visible;opacity:1;isolation:auto;mix-blend-mode:normal;color-interpolation:sRGB;color-interpolation-filters:linearRGB;solid-color:#000000;solid-opacity:1;fill:#0dce5d;fill-opacity:1;fill-rule:nonzero;stroke:#cef7df;stroke-width:18.89999962;stroke-linecap:butt;stroke-linejoin:miter;stroke-miterlimit:4;stroke-dasharray:none;stroke-dashoffset:0;stroke-opacity:1;color-rendering:auto;image-rendering:auto;shape-rendering:auto;text-rendering:auto;enable-background:accumulate"
       d="M 460 33.591797 L 460 214.57031 A 36.869775 36.869775 0 0 0 460.30273 214.57031 C 503.70514 214.21856 547.33033 226.45502 585.31055 248.29883 L 676.0918 91.867188 C 626.1566 62.725951 570.42419 43.481882 512.39844 36.699219 C 495.00967 34.57589 477.50324 33.592241 460 33.591797 z "
       id="path4255"
       transform="translate(0,145.27559)" />
  </g>
</svg>
