<?xml version="1.0" encoding="UTF-8" standalone="no"?>
<!-- Created with Inkscape (http://www.inkscape.org/) -->

<svg
   xmlns:dc="http://purl.org/dc/elements/1.1/"
   xmlns:cc="http://creativecommons.org/ns#"
   xmlns:rdf="http://www.w3.org/1999/02/22-rdf-syntax-ns#"
   xmlns:svg="http://www.w3.org/2000/svg"
   xmlns="http://www.w3.org/2000/svg"
   xmlns:sodipodi="http://sodipodi.sourceforge.net/DTD/sodipodi-0.dtd"
   xmlns:inkscape="http://www.inkscape.org/namespaces/inkscape"
   width="85.573738mm"
   height="46.920406mm"
   viewBox="0 0 303.21403 166.25341"
   id="svg2"
   version="1.1"
   inkscape:version="0.91 r13725"
   sodipodi:docname="logo.svg">
  <defs
     id="defs4" />
  <sodipodi:namedview
     id="base"
     pagecolor="#ffffff"
     bordercolor="#666666"
     borderopacity="1.0"
     inkscape:pageopacity="0.0"
     inkscape:pageshadow="2"
     inkscape:zoom="0.98994949"
     inkscape:cx="-262.67823"
     inkscape:cy="-10.482738"
     inkscape:document-units="px"
     inkscape:current-layer="layer1"
     showgrid="false"
     showguides="true"
     inkscape:guide-bbox="true"
     inkscape:object-nodes="true"
     inkscape:snap-smooth-nodes="true"
     inkscape:snap-bbox="true"
     inkscape:object-paths="true"
     inkscape:window-width="1920"
     inkscape:window-height="1137"
     inkscape:window-x="-8"
     inkscape:window-y="-8"
     inkscape:window-maximized="1"
     fit-margin-top="0"
     fit-margin-left="0"
     fit-margin-right="0"
     fit-margin-bottom="0">
    <sodipodi:guide
       position="282.42189,-34.285726"
       orientation="0,1"
       id="guide4146" />
    <sodipodi:guide
       position="46.406251,-4.7553267e-006"
       orientation="0,-46.40625"
       id="guide4163" />
    <sodipodi:guide
       position="-1.4781206e-007,-4.7553267e-006"
       orientation="-130.86914,0"
       id="guide4165" />
    <sodipodi:guide
       position="-1.4781206e-007,130.86914"
       orientation="0,38.75977"
       id="guide4167" />
    <sodipodi:guide
       position="70.136722,75.146488"
       orientation="0.70313,0"
       id="guide4169" />
    <sodipodi:guide
       position="98.701183,40.253907"
       orientation="0,-2.8421709e-014"
       id="guide4171" />
    <sodipodi:guide
       position="38.144541,116.01563"
       orientation="0,-20.74219"
       id="guide4173" />
    <sodipodi:guide
       position="17.40235,116.01563"
       orientation="37.79297,0"
       id="guide4175" />
    <sodipodi:guide
       position="17.40235,78.222659"
       orientation="0,22.5"
       id="guide4177" />
    <sodipodi:guide
       position="69.433602,99.228519"
       orientation="0,-2.8421709e-014"
       id="guide4179" />
    <sodipodi:guide
       position="44.736331,63.544918"
       orientation="0,-27.33398"
       id="guide4181" />
    <sodipodi:guide
       position="17.40235,63.544918"
       orientation="48.6914,0"
       id="guide4183" />
    <sodipodi:guide
       position="17.40235,14.853516"
       orientation="0,23.02734"
       id="guide4185" />
    <sodipodi:guide
       position="80.595712,39.550777"
       orientation="0,0"
       id="guide4187" />
    <sodipodi:guide
       position="30.422161,130.86925"
       orientation="14.85352,0"
       id="guide4189" />
    <sodipodi:guide
       position="30.422161,116.01573"
       orientation="0,75.41406"
       id="guide4191" />
    <sodipodi:guide
       position="105.83622,116.01573"
       orientation="116.01562,30.69922"
       id="guide4193" />
    <sodipodi:guide
       position="136.53544,0.00010524468"
       orientation="0,19.16016"
       id="guide4195" />
    <sodipodi:guide
       position="155.6956,0.00010524468"
       orientation="-108.63281,26.89453"
       id="guide4197" />
    <sodipodi:guide
       position="182.59014,108.63292"
       orientation="108.63281,27.50977"
       id="guide4199" />
    <sodipodi:guide
       position="210.09991,0.00010524468"
       orientation="0,19.59961"
       id="guide4201" />
    <sodipodi:guide
       position="229.69952,0.00010524468"
       orientation="-130.86914,34.01367"
       id="guide4203" />
    <sodipodi:guide
       position="263.71319,130.86925"
       orientation="0,-17.05078"
       id="guide4205" />
    <sodipodi:guide
       position="246.66241,130.86925"
       orientation="109.86328,-27.33399"
       id="guide4207" />
    <sodipodi:guide
       position="219.32842,21.005966"
       orientation="-109.86328,-27.33398"
       id="guide4209" />
    <sodipodi:guide
       position="191.99444,130.86925"
       orientation="0,-17.66602"
       id="guide4211" />
    <sodipodi:guide
       position="174.32842,130.86925"
       orientation="108.80859,-27.07031"
       id="guide4213" />
    <sodipodi:guide
       position="147.2581,22.060656"
       orientation="-108.80859,-27.50977"
       id="guide4215" />
    <sodipodi:guide
       position="119.74833,130.86925"
       orientation="0,-13.91211"
       id="guide4217" />
    <sodipodi:guide
       position="105.83622,130.86925"
       orientation="0,-3.92968"
       id="guide4219" />
    <sodipodi:guide
       position="101.90654,130.86925"
       orientation="0,-71.48438"
       id="guide4221" />
  </sodipodi:namedview>
  <metadata
     id="metadata7">
    <rdf:RDF>
      <cc:Work
         rdf:about="">
        <dc:format>image/svg+xml</dc:format>
        <dc:type
           rdf:resource="http://purl.org/dc/dcmitype/StillImage" />
        <dc:title></dc:title>
      </cc:Work>
    </rdf:RDF>
  </metadata>
  <g
     inkscape:label="Layer 1"
     inkscape:groupmode="layer"
     id="layer1"
     transform="translate(-120.43526,-411.82307)">
    <g
       style="font-style:normal;font-weight:normal;font-size:180px;line-height:125%;font-family:sans-serif;letter-spacing:0px;word-spacing:0px;fill:#000000;fill-opacity:1;stroke:none;stroke-width:1px;stroke-linecap:butt;stroke-linejoin:miter;stroke-opacity:1"
       id="text4136">
      <path
         d="m 375.90124,266.54748 -36.13757,145.24744 -27.33398,-109.86328 -17.66602,0 -27.07031,108.80859 -27.50977,-108.80859 -13.91211,0 -3.92968,0 -71.48438,0 0,14.85352 75.41406,0 30.69922,116.01562 19.16016,0 26.89453,-108.63281 27.50977,108.63281 19.59961,0 39.34971,-151.39978 34.16481,0 0,-14.85352 c 0,0 -20.46485,0 -30.69727,0 -1.28646,0 -3.85938,0 -3.85938,0 z"
         id="path4151"
         inkscape:connector-curvature="0"
         sodipodi:nodetypes="cccccccccccccccccccscc"
         style="fill:#ff4081;fill-opacity:1"
         transform="translate(0,145.27559)" />
      <path
         d="m 219.13644,537.82257 q 0,9.75586 -3.69141,17.22656 -3.69141,7.47071 -9.93164,12.30469 -7.38281,5.80078 -16.25977,8.26172 -8.78906,2.46094 -22.41211,2.46094 l -46.40625,0 0,-130.86914 38.75977,0 q 14.32617,0 21.44531,1.05468 7.11914,1.05469 13.62305,4.39454 7.20703,3.77929 10.45898,9.75585 3.25196,5.88868 3.25196,14.1504 0,9.3164 -4.7461,15.9082 -4.74609,6.5039 -12.65625,10.45898 l 0,0.70313 q 13.27149,2.72461 20.91797,11.68945 7.64649,8.87695 7.64649,22.5 z m -29.26758,-58.97461 q 0,-4.74609 -1.58203,-7.99805 -1.58203,-3.25195 -5.09766,-5.27343 -4.13086,-2.37305 -10.01953,-2.90039 -5.88867,-0.61524 -14.58984,-0.61524 l -20.74219,0 0,37.79297 22.5,0 q 8.17383,0 13.00781,-0.79101 4.83399,-0.87891 8.96484,-3.51563 4.13086,-2.63672 5.80079,-6.76758 1.75781,-4.21875 1.75781,-9.93164 z m 11.16211,59.67774 q 0,-7.91016 -2.37305,-12.56836 -2.37305,-4.65821 -8.61328,-7.91016 -4.21875,-2.19727 -10.2832,-2.8125 -5.97657,-0.70312 -14.58985,-0.70312 l -27.33398,0 0,48.6914 23.02734,0 q 11.42578,0 18.72071,-1.14258 7.29492,-1.23047 11.95312,-4.39453 4.92188,-3.42773 7.20703,-7.82226 2.28516,-4.39453 2.28516,-11.33789 z"
         id="path4149"
         inkscape:connector-curvature="0" />
    </g>
  </g>
</svg>
